<svg width="138" height="115" viewBox="0 0 138 115" fill="none" xmlns="http://www.w3.org/2000/svg">
<path d="M129.865 108.829H15.4267C14.652 108.829 14.0243 108.201 14.0243 107.426C14.0243 106.651 14.652 106.024 15.4267 106.024H128.463V12.0608C128.463 11.2861 129.091 10.6584 129.865 10.6584C130.64 10.6584 131.268 11.2861 131.268 12.0608V107.426C131.268 108.201 130.64 108.829 129.865 108.829ZM9.81701 108.829H7.57312C6.79841 108.829 6.17068 108.201 6.17068 107.426C6.17068 106.651 6.79841 106.024 7.57312 106.024H9.81701C10.5917 106.024 11.2194 106.651 11.2194 107.426C11.2194 108.201 10.5917 108.829 9.81701 108.829Z" fill="#EFEFEF"/>
<path d="M119.768 64.2314H89.4751C87.9262 64.2314 86.6702 62.9754 86.6702 61.4265V49.0851C86.6702 47.5363 87.9262 46.2803 89.4751 46.2803H119.768C121.316 46.2803 122.572 47.5363 122.572 49.0851V61.4265C122.572 62.9759 121.316 64.2314 119.768 64.2314Z" fill="black"/>
<path d="M118.085 61.146H99.0117C98.237 61.146 97.6092 60.5182 97.6092 59.7435C97.6092 58.9688 98.237 58.3411 99.0117 58.3411H116.682V50.768C116.682 49.9933 117.31 49.3655 118.085 49.3655C118.859 49.3655 119.487 49.9933 119.487 50.768V59.7435C119.487 60.5182 118.859 61.146 118.085 61.146ZM93.4019 61.146H91.158C90.3833 61.146 89.7556 60.5182 89.7556 59.7435C89.7556 58.9688 90.3833 58.3411 91.158 58.3411H93.4019C94.1766 58.3411 94.8044 58.9688 94.8044 59.7435C94.8044 60.5182 94.1766 61.146 93.4019 61.146Z" fill="#EFEFEF"/>
<path d="M95.6462 4.20733V12.0609C95.6462 13.6098 94.3902 14.8658 92.8413 14.8658H44.5977C43.0488 14.8658 41.7928 13.6098 41.7928 12.0609V4.20733C41.7928 2.65848 43.0488 1.40247 44.5977 1.40247H92.8413C94.3902 1.40247 95.6462 2.65848 95.6462 4.20733Z" fill="black"/>
<path d="M64.2316 59.7436C66.7102 59.7436 68.7194 57.7344 68.7194 55.2558C68.7194 52.7773 66.7102 50.7681 64.2316 50.7681C61.7531 50.7681 59.7439 52.7773 59.7439 55.2558C59.7439 57.7344 61.7531 59.7436 64.2316 59.7436Z" fill="black"/>
<path d="M46.2806 100.134C48.7591 100.134 50.7684 98.1243 50.7684 95.6458C50.7684 93.1673 48.7591 91.158 46.2806 91.158C43.8021 91.158 41.7928 93.1673 41.7928 95.6458C41.7928 98.1243 43.8021 100.134 46.2806 100.134Z" fill="black"/>
<path d="M32.8152 86.6704C35.2937 86.6704 37.303 84.6611 37.303 82.1826C37.303 79.7041 35.2937 77.6948 32.8152 77.6948C30.3366 77.6948 28.3274 79.7041 28.3274 82.1826C28.3274 84.6611 30.3366 86.6704 32.8152 86.6704Z" fill="black"/>
<path d="M23.8413 28.3294C26.3199 28.3294 28.3291 26.3201 28.3291 23.8416C28.3291 21.3631 26.3199 19.3538 23.8413 19.3538C21.3628 19.3538 19.3535 21.3631 19.3535 23.8416C19.3535 26.3201 21.3628 28.3294 23.8413 28.3294Z" fill="black"/>
<path d="M100.134 86.6704C102.612 86.6704 104.622 84.6611 104.622 82.1826C104.622 79.7041 102.612 77.6948 100.134 77.6948C97.6552 77.6948 95.646 79.7041 95.646 82.1826C95.646 84.6611 97.6552 86.6704 100.134 86.6704Z" fill="black"/>
<path d="M46.2806 41.7927C48.7591 41.7927 50.7684 39.7835 50.7684 37.3049C50.7684 34.8264 48.7591 32.8171 46.2806 32.8171C43.8021 32.8171 41.7928 34.8264 41.7928 37.3049C41.7928 39.7835 43.8021 41.7927 46.2806 41.7927Z" fill="black"/>
<path d="M100.134 32.817C102.612 32.817 104.622 30.8077 104.622 28.3292C104.622 25.8507 102.612 23.8414 100.134 23.8414C97.6552 23.8414 95.646 25.8507 95.646 28.3292C95.646 30.8077 97.6552 32.817 100.134 32.817Z" fill="black"/>
<path d="M82.1825 100.134C84.661 100.134 86.6703 98.1243 86.6703 95.6458C86.6703 93.1673 84.661 91.158 82.1825 91.158C79.704 91.158 77.6947 93.1673 77.6947 95.6458C77.6947 98.1243 79.704 100.134 82.1825 100.134Z" fill="black"/>
<path d="M91.1579 11.7802H87.7921C87.0174 11.7802 86.3897 11.1525 86.3897 10.3778C86.3897 9.60307 87.0174 8.97534 87.7921 8.97534H91.1579C91.9326 8.97534 92.5604 9.60307 92.5604 10.3778C92.5604 11.1525 91.9326 11.7802 91.1579 11.7802ZM82.1824 11.7802H46.2801C45.5054 11.7802 44.8777 11.1525 44.8777 10.3778C44.8777 9.60307 45.5054 8.97534 46.2801 8.97534H82.1824C82.9571 8.97534 83.5848 9.60307 83.5848 10.3778C83.5848 11.1525 82.9571 11.7802 82.1824 11.7802Z" fill="#F8E5B0"/>
<path d="M133.231 4.48778H97.0483V4.2073C97.0483 1.89048 95.1578 0 92.841 0H44.5973C42.2805 0 40.39 1.89048 40.39 4.2073V4.48778H4.2073C1.88431 4.48778 0 6.37826 0 8.69508V61.7463C0 62.5204 0.62829 63.1487 1.40243 63.1487C2.17657 63.1487 2.80486 62.5204 2.80486 61.7463V56.6583H22.4389V68.7192C22.4389 69.4939 23.0666 70.1216 23.8413 70.1216H44.8778V89.9318C42.7562 90.4529 41.0868 92.1224 40.5656 94.244H2.80486V83.5855H27.1023C27.7339 86.157 30.053 88.0733 32.8169 88.0733C36.0649 88.0733 38.7071 85.4311 38.7071 82.1831C38.7071 78.9351 36.0649 76.2929 32.8169 76.2929C30.053 76.2929 27.7339 78.2092 27.1023 80.7807H2.80486V72.9663C2.80486 72.1922 2.17657 71.5639 1.40243 71.5639C0.62829 71.5639 0 72.1922 0 72.9663V110.793C0 113.11 1.88431 115 4.2073 115H133.231C135.548 115 137.438 113.11 137.438 110.793V8.69564C137.438 6.37826 135.548 4.48778 133.231 4.48778ZM32.8169 79.0972C34.5178 79.0972 35.9023 80.4811 35.9023 82.1825C35.9023 83.884 34.5178 85.2679 32.8169 85.2679C31.116 85.2679 29.7316 83.884 29.7316 82.1825C29.7316 80.4811 31.116 79.0972 32.8169 79.0972ZM22.4389 53.8534H2.80486V43.1949H22.4389V53.8534ZM20.756 23.8413C20.756 22.1399 22.1405 20.756 23.8413 20.756C25.5422 20.756 26.9267 22.1399 26.9267 23.8413C26.9267 25.5428 25.5422 26.9267 23.8413 26.9267C22.1405 26.9267 20.756 25.5428 20.756 23.8413ZM25.2438 67.3167V29.556C27.8158 28.9243 29.7316 26.6053 29.7316 23.8413C29.7316 20.5933 27.0894 17.9511 23.8413 17.9511C20.5933 17.9511 17.9511 20.5933 17.9511 23.8413C17.9511 26.6053 19.8669 28.9243 22.4389 29.556V40.39H2.80486V8.69508C2.80486 7.92094 3.43315 7.29265 4.2073 7.29265H40.39V12.0609C40.39 14.3777 42.2805 16.2682 44.5973 16.2682H45.0792C45.8477 16.2682 46.4816 15.6399 46.4816 14.8658C46.4816 14.0916 45.8477 13.4633 45.0792 13.4633H44.5973C43.8232 13.4633 43.1949 12.8351 43.1949 12.0609V4.2073C43.1949 3.43315 43.8232 2.80486 44.5973 2.80486H49.3656V5.89021C49.3656 6.66492 49.9933 7.29265 50.768 7.29265C51.5427 7.29265 52.1705 6.66492 52.1705 5.89021V2.80486H58.3412V5.89021C58.3412 6.66492 58.9689 7.29265 59.7436 7.29265C60.5183 7.29265 61.146 6.66492 61.146 5.89021V2.80486H67.3167V5.89021C67.3167 6.66492 67.9445 7.29265 68.7192 7.29265C69.4939 7.29265 70.1216 6.66492 70.1216 5.89021V2.80486H76.2923V5.89021C76.2923 6.66492 76.92 7.29265 77.6947 7.29265C78.4694 7.29265 79.0972 6.66492 79.0972 5.89021V2.80486H85.2679V5.89021C85.2679 6.66492 85.8956 7.29265 86.6703 7.29265C87.445 7.29265 88.0727 6.66492 88.0727 5.89021V2.80486H92.841C93.6151 2.80486 94.2434 3.43315 94.2434 4.2073V12.0609C94.2434 12.8351 93.6151 13.4633 92.841 13.4633H56.2987C55.5245 13.4633 54.8962 14.0916 54.8962 14.8658C54.8962 15.6399 55.5245 16.2682 56.2987 16.2682H58.3412V35.9023H51.9949C51.3632 33.3308 49.0442 31.4145 46.2803 31.4145C43.0322 31.4145 40.39 34.0567 40.39 37.3047C40.39 40.0686 42.3058 42.3877 44.8778 43.0193V67.3167H25.2438ZM49.3656 37.3047C49.3656 39.0061 47.9811 40.39 46.2803 40.39C44.5794 40.39 43.1949 39.0061 43.1949 37.3047C43.1949 35.6033 44.5794 34.2193 46.2803 34.2193C47.9811 34.2193 49.3656 35.6038 49.3656 37.3047ZM44.8778 112.195H4.2073C3.43315 112.195 2.80486 111.566 2.80486 110.792V97.0483H40.5656C41.0868 99.1699 42.7562 100.839 44.8778 101.361V112.195ZM43.1949 95.6459C43.1949 93.9444 44.5794 92.5605 46.2803 92.5605C47.9811 92.5605 49.3656 93.9444 49.3656 95.6459C49.3656 97.3473 47.9811 98.7312 46.2803 98.7312C44.5794 98.7312 43.1949 97.3473 43.1949 95.6459ZM62.829 112.195H47.6827V101.361C50.2547 100.729 52.1705 98.4098 52.1705 95.6459C52.1705 92.882 50.2547 90.5629 47.6827 89.9312V43.0188C49.8043 42.4976 51.4737 40.8282 51.9949 38.7066H59.7436C60.5183 38.7066 61.146 38.0788 61.146 37.3041V16.2677H76.2923V53.8528H69.946C69.3144 51.2813 66.9953 49.3651 64.2314 49.3651C60.9834 49.3651 58.3412 52.0072 58.3412 55.2553C58.3412 58.0192 60.2569 60.3382 62.829 60.9699V112.195ZM61.146 55.2558C61.146 53.5544 62.5305 52.1705 64.2314 52.1705C65.9323 52.1705 67.3167 53.5544 67.3167 55.2558C67.3167 56.9573 65.9323 58.3412 64.2314 58.3412C62.5305 58.3412 61.146 56.9573 61.146 55.2558ZM134.633 85.9186L122.146 94.2434H116.312C115.544 94.2434 114.91 94.8717 114.91 95.6459C114.91 96.42 115.544 97.0483 116.312 97.0483H122.573C122.853 97.0483 123.111 96.9698 123.352 96.8127L134.633 89.2889V110.792C134.633 111.566 134 112.195 133.231 112.195H65.6338V91.7387L73.7876 83.585H94.419C95.0507 86.1565 97.3697 88.0727 100.134 88.0727C103.382 88.0727 106.024 85.4306 106.024 82.1825C106.024 78.9345 103.382 76.2923 100.134 76.2923C97.3697 76.2923 95.0507 78.2086 94.419 80.7801H73.207C72.835 80.7801 72.4782 80.9276 72.2151 81.1907L65.6338 87.7726V60.9705C67.7554 60.4493 69.4249 58.7799 69.946 56.6583H85.2679V61.4265C85.2679 63.7467 87.155 65.6338 89.4752 65.6338H89.7556V68.7192C89.7556 69.4939 90.3834 70.1216 91.1581 70.1216C91.9328 70.1216 92.5605 69.4939 92.5605 68.7192V65.6338H98.7312V68.7192C98.7312 69.4939 99.3589 70.1216 100.134 70.1216C100.908 70.1216 101.536 69.4939 101.536 68.7192V65.6338H107.707V68.7192C107.707 69.4939 108.335 70.1216 109.109 70.1216C109.884 70.1216 110.512 69.4939 110.512 68.7192V65.6338H116.682V68.7192C116.682 69.4939 117.31 70.1216 118.085 70.1216C118.859 70.1216 119.487 69.4939 119.487 68.7192V65.6338H119.768C122.088 65.6338 123.975 63.7467 123.975 61.4265V56.6583H134.633V85.9186ZM97.0483 82.1825C97.0483 80.4811 98.4328 79.0972 100.134 79.0972C101.835 79.0972 103.219 80.4811 103.219 82.1825C103.219 83.884 101.835 85.2679 100.134 85.2679C98.4328 85.2679 97.0483 83.884 97.0483 82.1825ZM88.0727 61.4265V49.0851C88.0727 48.3121 88.7016 47.6827 89.4752 47.6827H119.768C120.541 47.6827 121.17 48.3121 121.17 49.0851V61.4265C121.17 62.1995 120.541 62.829 119.768 62.829H89.4752C88.7016 62.829 88.0727 62.2001 88.0727 61.4265ZM134.633 26.9267H105.848C105.217 24.3552 102.898 22.4389 100.134 22.4389C96.8856 22.4389 94.2434 25.0811 94.2434 28.3291C94.2434 31.5772 96.8856 34.2193 100.134 34.2193C102.898 34.2193 105.217 32.3031 105.848 29.7316H134.633V53.8534H123.975V49.0851C123.975 46.7649 122.088 44.8778 119.768 44.8778H119.487V41.7925C119.487 41.0178 118.859 40.39 118.085 40.39C117.31 40.39 116.682 41.0178 116.682 41.7925V44.8778H110.512V41.7925C110.512 41.0178 109.884 40.39 109.109 40.39C108.335 40.39 107.707 41.0178 107.707 41.7925V44.8778H101.536V41.7925C101.536 41.0178 100.908 40.39 100.134 40.39C99.3589 40.39 98.7312 41.0178 98.7312 41.7925V44.8778H92.5605V41.7925C92.5605 41.0178 91.9328 40.39 91.1581 40.39C90.3834 40.39 89.7556 41.0178 89.7556 41.7925V44.8778H89.4752C87.155 44.8778 85.2679 46.7649 85.2679 49.0851V53.8534H79.0972V16.2682H92.841C95.1578 16.2682 97.0483 14.3777 97.0483 12.0609V7.29265H133.231C134 7.29265 134.633 7.92094 134.633 8.69508V26.9267ZM103.219 28.3291C103.219 30.0306 101.835 31.4145 100.134 31.4145C98.4328 31.4145 97.0483 30.0306 97.0483 28.3291C97.0483 26.6277 98.4328 25.2438 100.134 25.2438C101.835 25.2438 103.219 26.6283 103.219 28.3291Z" fill="black"/>
<path d="M1.40263 68.7578C2.17717 68.7578 2.80506 68.1299 2.80506 67.3554C2.80506 66.5808 2.17717 65.9529 1.40263 65.9529C0.628089 65.9529 0.000198364 66.5808 0.000198364 67.3554C0.000198364 68.1299 0.628089 68.7578 1.40263 68.7578Z" fill="black"/>
<path d="M110.702 97.0478C111.477 97.0478 112.104 96.42 112.104 95.6454C112.104 94.8709 111.477 94.243 110.702 94.243C109.928 94.243 109.3 94.8709 109.3 95.6454C109.3 96.42 109.928 97.0478 110.702 97.0478Z" fill="black"/>
<path d="M105.093 94.243H87.8977C87.266 91.6715 84.9469 89.7552 82.183 89.7552C78.935 89.7552 76.2928 92.3974 76.2928 95.6454C76.2928 98.8934 78.935 101.536 82.183 101.536C84.9469 101.536 87.266 99.6193 87.8977 97.0478H105.093C105.867 97.0478 106.496 96.4195 106.496 95.6454C106.496 94.8713 105.867 94.243 105.093 94.243ZM82.183 98.7308C80.4822 98.7308 79.0977 97.3468 79.0977 95.6454C79.0977 93.944 80.4822 92.5601 82.183 92.5601C83.8839 92.5601 85.2684 93.944 85.2684 95.6454C85.2684 97.3468 83.8839 98.7308 82.183 98.7308Z" fill="black"/>
<path d="M95.6467 56.658H113.598C114.373 56.658 115 56.0303 115 55.2556C115 54.4809 114.373 53.8531 113.598 53.8531H95.6467C94.872 53.8531 94.2443 54.4809 94.2443 55.2556C94.2443 56.0303 94.872 56.658 95.6467 56.658Z" fill="black"/>
<path d="M50.6884 16.268C51.463 16.268 52.0909 15.6401 52.0909 14.8656C52.0909 14.091 51.463 13.4631 50.6884 13.4631C49.9139 13.4631 49.286 14.091 49.286 14.8656C49.286 15.6401 49.9139 16.268 50.6884 16.268Z" fill="black"/>
</svg>
