<svg width="116" height="115" viewBox="0 0 116 115" fill="none" xmlns="http://www.w3.org/2000/svg">
<path d="M57.7121 7.1875C57.7121 5.28126 58.4722 3.45309 59.825 2.10517C61.1779 0.757252 63.0129 0 64.9261 0L108.21 0C110.123 0 111.958 0.757252 113.311 2.10517C114.664 3.45309 115.424 5.28126 115.424 7.1875V107.812C115.424 109.719 114.664 111.547 113.311 112.895C111.958 114.243 110.123 115 108.21 115H64.9261C63.0129 115 61.1779 114.243 59.825 112.895C58.4722 111.547 57.7121 109.719 57.7121 107.812V7.1875ZM64.9261 104.219C64.9261 105.172 65.3061 106.086 65.9826 106.76C66.659 107.434 67.5765 107.812 68.5331 107.812C69.4898 107.812 70.4072 107.434 71.0837 106.76C71.7601 106.086 72.1401 105.172 72.1401 104.219C72.1401 103.266 71.7601 102.352 71.0837 101.678C70.4072 101.004 69.4898 100.625 68.5331 100.625C67.5765 100.625 66.659 101.004 65.9826 101.678C65.3061 102.352 64.9261 103.266 64.9261 104.219ZM79.3542 104.219C79.3542 105.172 79.7342 106.086 80.4106 106.76C81.0871 107.434 82.0045 107.812 82.9612 107.812C83.9178 107.812 84.8353 107.434 85.5117 106.76C86.1881 106.086 86.5682 105.172 86.5682 104.219C86.5682 103.266 86.1881 102.352 85.5117 101.678C84.8353 101.004 83.9178 100.625 82.9612 100.625C82.0045 100.625 81.0871 101.004 80.4106 101.678C79.7342 102.352 79.3542 103.266 79.3542 104.219ZM68.5331 7.1875C67.5765 7.1875 66.659 7.56613 65.9826 8.24008C65.3061 8.91404 64.9261 9.82813 64.9261 10.7812C64.9261 11.7344 65.3061 12.6485 65.9826 13.3224C66.659 13.9964 67.5765 14.375 68.5331 14.375H104.603C105.56 14.375 106.477 13.9964 107.154 13.3224C107.83 12.6485 108.21 11.7344 108.21 10.7812C108.21 9.82813 107.83 8.91404 107.154 8.24008C106.477 7.56613 105.56 7.1875 104.603 7.1875H68.5331ZM64.9261 25.1562C64.9261 26.1094 65.3061 27.0235 65.9826 27.6974C66.659 28.3714 67.5765 28.75 68.5331 28.75H104.603C105.56 28.75 106.477 28.3714 107.154 27.6974C107.83 27.0235 108.21 26.1094 108.21 25.1562C108.21 24.2031 107.83 23.289 107.154 22.6151C106.477 21.9411 105.56 21.5625 104.603 21.5625H68.5331C67.5765 21.5625 66.659 21.9411 65.9826 22.6151C65.3061 23.289 64.9261 24.2031 64.9261 25.1562ZM10.821 14.375C7.95111 14.375 5.19874 15.5109 3.1694 17.5328C1.14007 19.5546 0 22.2969 0 25.1562L0 75.4688C0 78.3281 1.14007 81.0704 3.1694 83.0922C5.19874 85.1141 7.95111 86.25 10.821 86.25H43.2841V100.625H39.6771C38.7204 100.625 37.803 101.004 37.1265 101.678C36.4501 102.352 36.0701 103.266 36.0701 104.219C36.0701 105.172 36.4501 106.086 37.1265 106.76C37.803 107.434 38.7204 107.812 39.6771 107.812H50.4981V79.0625H10.821C9.86438 79.0625 8.94693 78.6839 8.27048 78.0099C7.59404 77.336 7.21401 76.4219 7.21401 75.4688V25.1562C7.21401 24.2031 7.59404 23.289 8.27048 22.6151C8.94693 21.9411 9.86438 21.5625 10.821 21.5625H50.4981V14.375H10.821Z" fill="black"/>
</svg>
