<svg width="143" height="115" viewBox="0 0 143 115" fill="none" xmlns="http://www.w3.org/2000/svg">
<path d="M139.425 93.4375H85.2504C85.085 97.887 81.9636 100.625 77.935 100.625H64.35C60.174 100.625 56.9721 96.7011 57.028 93.4375H3.575C1.60875 93.4375 0 95.0547 0 97.0313V100.625C0 108.531 6.435 115 14.3 115H128.7C136.565 115 143 108.531 143 100.625V97.0313C143 95.0547 141.391 93.4375 139.425 93.4375ZM128.7 10.7813C128.7 4.85156 123.874 0 117.975 0H25.025C19.1263 0 14.3 4.85156 14.3 10.7813V86.25H128.7V10.7813ZM114.4 71.875H28.6V14.375H114.4V71.875Z" fill="black"/>
</svg>
