<svg width="116" height="98" viewBox="0 0 116 98" fill="none" xmlns="http://www.w3.org/2000/svg">
<path d="M109.383 92.3525H12.9936C12.3411 92.3525 11.8124 91.8238 11.8124 91.1712C11.8124 90.5187 12.3411 89.99 12.9936 89.99H108.202V10.847C108.202 10.1945 108.73 9.66577 109.383 9.66577C110.035 9.66577 110.564 10.1945 110.564 10.847V91.1712C110.564 91.8238 110.035 92.3525 109.383 92.3525ZM8.26867 92.3525H6.37869C5.72617 92.3525 5.19745 91.8238 5.19745 91.1712C5.19745 90.5187 5.72617 89.99 6.37869 89.99H8.26867C8.92119 89.99 9.44991 90.5187 9.44991 91.1712C9.44991 91.8238 8.92119 92.3525 8.26867 92.3525Z" fill="#EFEFEF"/>
<path d="M100.878 54.7892H75.363C74.0584 54.7892 73.0005 53.7313 73.0005 52.4267V42.0318C73.0005 40.7272 74.0584 39.6693 75.363 39.6693H100.878C102.182 39.6693 103.24 40.7272 103.24 42.0318V52.4267C103.24 53.7317 102.182 54.7892 100.878 54.7892Z" fill="black"/>
<path d="M99.4603 52.1904H83.3955C82.7429 52.1904 82.2142 51.6616 82.2142 51.0091C82.2142 50.3566 82.7429 49.8279 83.3955 49.8279H98.2791V43.4492C98.2791 42.7967 98.8078 42.2679 99.4603 42.2679C100.113 42.2679 100.642 42.7967 100.642 43.4492V51.0091C100.642 51.6616 100.113 52.1904 99.4603 52.1904ZM78.6705 52.1904H76.7805C76.128 52.1904 75.5993 51.6616 75.5993 51.0091C75.5993 50.3566 76.128 49.8279 76.7805 49.8279H78.6705C79.323 49.8279 79.8517 50.3566 79.8517 51.0091C79.8517 51.6616 79.323 52.1904 78.6705 52.1904Z" fill="#EFEFEF"/>
<path d="M80.5608 4.23223V10.8472C80.5608 12.1517 79.5029 13.2096 78.1983 13.2096H37.5637C36.2592 13.2096 35.2012 12.1517 35.2012 10.8472V4.23223C35.2012 2.92767 36.2592 1.86975 37.5637 1.86975H78.1983C79.5029 1.86975 80.5608 2.92767 80.5608 4.23223Z" fill="black"/>
<path d="M54.101 51.0093C56.1886 51.0093 57.881 49.3169 57.881 47.2293C57.881 45.1417 56.1886 43.4493 54.101 43.4493C52.0134 43.4493 50.321 45.1417 50.321 47.2293C50.321 49.3169 52.0134 51.0093 54.101 51.0093Z" fill="black"/>
<path d="M38.9812 85.0289C41.0688 85.0289 42.7612 83.3366 42.7612 81.249C42.7612 79.1613 41.0688 77.469 38.9812 77.469C36.8936 77.469 35.2012 79.1613 35.2012 81.249C35.2012 83.3366 36.8936 85.0289 38.9812 85.0289Z" fill="black"/>
<path d="M27.6395 73.6891C29.7272 73.6891 31.4195 71.9967 31.4195 69.9091C31.4195 67.8215 29.7272 66.1292 27.6395 66.1292C25.5519 66.1292 23.8596 67.8215 23.8596 69.9091C23.8596 71.9967 25.5519 73.6891 27.6395 73.6891Z" fill="black"/>
<path d="M20.0811 24.5497C22.1687 24.5497 23.861 22.8573 23.861 20.7697C23.861 18.6821 22.1687 16.9897 20.0811 16.9897C17.9934 16.9897 16.3011 18.6821 16.3011 20.7697C16.3011 22.8573 17.9934 24.5497 20.0811 24.5497Z" fill="black"/>
<path d="M84.3406 73.6891C86.4282 73.6891 88.1205 71.9967 88.1205 69.9091C88.1205 67.8215 86.4282 66.1292 84.3406 66.1292C82.2529 66.1292 80.5606 67.8215 80.5606 69.9091C80.5606 71.9967 82.2529 73.6891 84.3406 73.6891Z" fill="black"/>
<path d="M38.9812 35.8896C41.0688 35.8896 42.7612 34.1973 42.7612 32.1097C42.7612 30.0221 41.0688 28.3297 38.9812 28.3297C36.8936 28.3297 35.2012 30.0221 35.2012 32.1097C35.2012 34.1973 36.8936 35.8896 38.9812 35.8896Z" fill="black"/>
<path d="M84.3406 28.3296C86.4282 28.3296 88.1205 26.6372 88.1205 24.5496C88.1205 22.462 86.4282 20.7697 84.3406 20.7697C82.2529 20.7697 80.5606 22.462 80.5606 24.5496C80.5606 26.6372 82.2529 28.3296 84.3406 28.3296Z" fill="black"/>
<path d="M69.2206 85.0289C71.3082 85.0289 73.0006 83.3366 73.0006 81.249C73.0006 79.1613 71.3082 77.469 69.2206 77.469C67.133 77.469 65.4406 79.1613 65.4406 81.249C65.4406 83.3366 67.133 85.0289 69.2206 85.0289Z" fill="black"/>
<path d="M76.7804 10.6108H73.9454C73.2929 10.6108 72.7642 10.082 72.7642 9.42953C72.7642 8.77701 73.2929 8.24829 73.9454 8.24829H76.7804C77.4329 8.24829 77.9617 8.77701 77.9617 9.42953C77.9617 10.082 77.4329 10.6108 76.7804 10.6108ZM69.2205 10.6108H38.9808C38.3283 10.6108 37.7995 10.082 37.7995 9.42953C37.7995 8.77701 38.3283 8.24829 38.9808 8.24829H69.2205C69.873 8.24829 70.4017 8.77701 70.4017 9.42953C70.4017 10.082 69.873 10.6108 69.2205 10.6108Z" fill="#F8E5B0"/>
<path d="M112.218 4.46844H81.7417V4.23219C81.7417 2.28079 80.1494 0.688477 78.198 0.688477H37.5634C35.612 0.688477 34.0197 2.28079 34.0197 4.23219V4.46844H3.54372C1.58711 4.46844 0 6.06075 0 8.01216V52.6961C0 53.3481 0.529195 53.8773 1.18124 53.8773C1.83328 53.8773 2.36248 53.3481 2.36248 52.6961V48.4105H18.8998V58.5692C18.8998 59.2217 19.4285 59.7504 20.0811 59.7504H37.7996V76.4361C36.0127 76.8751 34.6065 78.2812 34.1676 80.0682H2.36248V71.0908H22.8277C23.3597 73.2567 25.313 74.8708 27.641 74.8708C30.3767 74.8708 32.6022 72.6453 32.6022 69.9096C32.6022 67.1738 30.3767 64.9484 27.641 64.9484C25.313 64.9484 23.3597 66.5624 22.8277 68.7283H2.36248V62.1465C2.36248 61.4944 1.83328 60.9652 1.18124 60.9652C0.529195 60.9652 0 61.4944 0 62.1465V94.0068C0 95.9583 1.58711 97.5506 3.54372 97.5506H112.218C114.169 97.5506 115.761 95.9583 115.761 94.0068V8.01263C115.761 6.06075 114.169 4.46844 112.218 4.46844ZM27.641 67.3104C29.0736 67.3104 30.2397 68.476 30.2397 69.9091C30.2397 71.3422 29.0736 72.5078 27.641 72.5078C26.2084 72.5078 25.0423 71.3422 25.0423 69.9091C25.0423 68.476 26.2084 67.3104 27.641 67.3104ZM18.8998 46.0481H2.36248V37.0706H18.8998V46.0481ZM17.4823 20.7695C17.4823 19.3365 18.6485 18.1708 20.0811 18.1708C21.5137 18.1708 22.6798 19.3365 22.6798 20.7695C22.6798 22.2026 21.5137 23.3683 20.0811 23.3683C18.6485 23.3683 17.4823 22.2026 17.4823 20.7695ZM21.2623 57.388V25.5829C23.4287 25.0508 25.0423 23.0975 25.0423 20.7695C25.0423 18.0338 22.8168 15.8083 20.0811 15.8083C17.3453 15.8083 15.1199 18.0338 15.1199 20.7695C15.1199 23.0975 16.7334 25.0508 18.8998 25.5829V34.7082H2.36248V8.01216C2.36248 7.36011 2.89167 6.83092 3.54372 6.83092H34.0197V10.8471C34.0197 12.7985 35.612 14.3908 37.5634 14.3908H37.9693C38.6166 14.3908 39.1505 13.8617 39.1505 13.2096C39.1505 12.5576 38.6166 12.0284 37.9693 12.0284H37.5634C36.9114 12.0284 36.3822 11.4992 36.3822 10.8471V4.23219C36.3822 3.58015 36.9114 3.05095 37.5634 3.05095H41.5796V5.64968C41.5796 6.3022 42.1083 6.83092 42.7608 6.83092C43.4134 6.83092 43.9421 6.3022 43.9421 5.64968V3.05095H49.1395V5.64968C49.1395 6.3022 49.6683 6.83092 50.3208 6.83092C50.9733 6.83092 51.502 6.3022 51.502 5.64968V3.05095H56.6995V5.64968C56.6995 6.3022 57.2282 6.83092 57.8807 6.83092C58.5332 6.83092 59.0619 6.3022 59.0619 5.64968V3.05095H64.2594V5.64968C64.2594 6.3022 64.7881 6.83092 65.4406 6.83092C66.0932 6.83092 66.6219 6.3022 66.6219 5.64968V3.05095H71.8193V5.64968C71.8193 6.3022 72.3481 6.83092 73.0006 6.83092C73.6531 6.83092 74.1818 6.3022 74.1818 5.64968V3.05095H78.198C78.8501 3.05095 79.3793 3.58015 79.3793 4.23219V10.8471C79.3793 11.4992 78.8501 12.0284 78.198 12.0284H47.4192C46.7671 12.0284 46.2379 12.5576 46.2379 13.2096C46.2379 13.8617 46.7671 14.3908 47.4192 14.3908H49.1395V30.9282H43.7942C43.2622 28.7623 41.3089 27.1482 38.9809 27.1482C36.2451 27.1482 34.0197 29.3737 34.0197 32.1094C34.0197 34.4374 35.6333 36.3907 37.7996 36.9228V57.388H21.2623ZM41.5796 32.1094C41.5796 33.5425 40.4135 34.7082 38.9809 34.7082C37.5483 34.7082 36.3822 33.5425 36.3822 32.1094C36.3822 30.6764 37.5483 29.5107 38.9809 29.5107C40.4135 29.5107 41.5796 30.6768 41.5796 32.1094ZM37.7996 95.1876H3.54372C2.89167 95.1876 2.36248 94.6584 2.36248 94.0064V82.4302H34.1676C34.6065 84.2172 36.0127 85.6233 37.7996 86.0623V95.1876ZM36.3822 81.249C36.3822 79.8159 37.5483 78.6503 38.9809 78.6503C40.4135 78.6503 41.5796 79.8159 41.5796 81.249C41.5796 82.6821 40.4135 83.8477 38.9809 83.8477C37.5483 83.8477 36.3822 82.6821 36.3822 81.249ZM52.9195 95.1876H40.1621V86.0623C42.3285 85.5303 43.9421 83.577 43.9421 81.249C43.9421 78.921 42.3285 76.9677 40.1621 76.4357V36.9223C41.9491 36.4833 43.3552 35.0772 43.7942 33.2902H50.3208C50.9733 33.2902 51.502 32.7615 51.502 32.109V14.3904H64.2594V46.0476H58.9141C58.382 43.8817 56.4287 42.2676 54.1007 42.2676C51.365 42.2676 49.1395 44.4931 49.1395 47.2288C49.1395 49.5568 50.7531 51.5101 52.9195 52.0421V95.1876ZM51.502 47.2293C51.502 45.7962 52.6681 44.6306 54.1007 44.6306C55.5334 44.6306 56.6995 45.7962 56.6995 47.2293C56.6995 48.6624 55.5334 49.828 54.1007 49.828C52.6681 49.828 51.502 48.6624 51.502 47.2293ZM113.399 73.0559L102.881 80.0677H97.9672C97.3199 80.0677 96.786 80.5969 96.786 81.249C96.786 81.901 97.3199 82.4302 97.9672 82.4302H103.24C103.477 82.4302 103.694 82.3641 103.897 82.2318L113.399 75.8947V94.0064C113.399 94.6584 112.865 95.1876 112.218 95.1876H55.282V77.9581L62.1497 71.0903H79.5272C80.0592 73.2562 82.0125 74.8703 84.3405 74.8703C87.0762 74.8703 89.3017 72.6448 89.3017 69.9091C89.3017 67.1733 87.0762 64.9479 84.3405 64.9479C82.0125 64.9479 80.0592 66.5619 79.5272 68.7279H61.6607C61.3474 68.7279 61.0469 68.8521 60.8253 69.0737L55.282 74.6175V52.0426C57.069 51.6037 58.4751 50.1975 58.9141 48.4105H71.8193V52.4268C71.8193 54.381 73.4088 55.9705 75.363 55.9705H75.5993V58.5692C75.5993 59.2217 76.128 59.7504 76.7805 59.7504C77.4331 59.7504 77.9618 59.2217 77.9618 58.5692V55.9705H83.1592V58.5692C83.1592 59.2217 83.6879 59.7504 84.3405 59.7504C84.993 59.7504 85.5217 59.2217 85.5217 58.5692V55.9705H90.7192V58.5692C90.7192 59.2217 91.2479 59.7504 91.9004 59.7504C92.5529 59.7504 93.0816 59.2217 93.0816 58.5692V55.9705H98.2791V58.5692C98.2791 59.2217 98.8078 59.7504 99.4603 59.7504C100.113 59.7504 100.642 59.2217 100.642 58.5692V55.9705H100.878C102.832 55.9705 104.422 54.381 104.422 52.4268V48.4105H113.399V73.0559ZM81.7417 69.9091C81.7417 68.476 82.9079 67.3104 84.3405 67.3104C85.7731 67.3104 86.9392 68.476 86.9392 69.9091C86.9392 71.3422 85.7731 72.5078 84.3405 72.5078C82.9079 72.5078 81.7417 71.3422 81.7417 69.9091ZM74.1818 52.4268V42.0318C74.1818 41.3807 74.7115 40.8506 75.363 40.8506H100.878C101.529 40.8506 102.059 41.3807 102.059 42.0318V52.4268C102.059 53.0779 101.529 53.608 100.878 53.608H75.363C74.7115 53.608 74.1818 53.0783 74.1818 52.4268ZM113.399 23.3683H89.1538C88.6217 21.2023 86.6684 19.5883 84.3405 19.5883C81.6047 19.5883 79.3793 21.8138 79.3793 24.5495C79.3793 27.2853 81.6047 29.5107 84.3405 29.5107C86.6684 29.5107 88.6217 27.8967 89.1538 25.7307H113.399V46.0481H104.422V42.0318C104.422 40.0776 102.832 38.4881 100.878 38.4881H100.642V35.8894C100.642 35.2369 100.113 34.7082 99.4603 34.7082C98.8078 34.7082 98.2791 35.2369 98.2791 35.8894V38.4881H93.0816V35.8894C93.0816 35.2369 92.5529 34.7082 91.9004 34.7082C91.2479 34.7082 90.7192 35.2369 90.7192 35.8894V38.4881H85.5217V35.8894C85.5217 35.2369 84.993 34.7082 84.3405 34.7082C83.6879 34.7082 83.1592 35.2369 83.1592 35.8894V38.4881H77.9618V35.8894C77.9618 35.2369 77.4331 34.7082 76.7805 34.7082C76.128 34.7082 75.5993 35.2369 75.5993 35.8894V38.4881H75.363C73.4088 38.4881 71.8193 40.0776 71.8193 42.0318V46.0481H66.6219V14.3908H78.198C80.1494 14.3908 81.7417 12.7985 81.7417 10.8471V6.83092H112.218C112.865 6.83092 113.399 7.36011 113.399 8.01216V23.3683ZM86.9392 24.5495C86.9392 25.9826 85.7731 27.1482 84.3405 27.1482C82.9079 27.1482 81.7417 25.9826 81.7417 24.5495C81.7417 23.1164 82.9079 21.9508 84.3405 21.9508C85.7731 21.9508 86.9392 23.1169 86.9392 24.5495Z" fill="black"/>
<path d="M1.18141 58.6017C1.83379 58.6017 2.36265 58.0729 2.36265 57.4205C2.36265 56.7681 1.83379 56.2393 1.18141 56.2393C0.529027 56.2393 0.000167847 56.7681 0.000167847 57.4205C0.000167847 58.0729 0.529027 58.6017 1.18141 58.6017Z" fill="black"/>
<path d="M93.242 82.4299C93.8944 82.4299 94.4233 81.901 94.4233 81.2486C94.4233 80.5962 93.8944 80.0674 93.242 80.0674C92.5897 80.0674 92.0608 80.5962 92.0608 81.2486C92.0608 81.901 92.5897 82.4299 93.242 82.4299Z" fill="black"/>
<path d="M88.5178 80.0673H74.0343C73.5023 77.9014 71.549 76.2874 69.221 76.2874C66.4853 76.2874 64.2598 78.5128 64.2598 81.2486C64.2598 83.9843 66.4853 86.2098 69.221 86.2098C71.549 86.2098 73.5023 84.5957 74.0343 82.4298H88.5178C89.1698 82.4298 89.699 81.9006 89.699 81.2486C89.699 80.5965 89.1698 80.0673 88.5178 80.0673ZM69.221 83.8473C67.7884 83.8473 66.6223 82.6816 66.6223 81.2486C66.6223 79.8155 67.7884 78.6498 69.221 78.6498C70.6536 78.6498 71.8198 79.8155 71.8198 81.2486C71.8198 82.6816 70.6536 83.8473 69.221 83.8473Z" fill="black"/>
<path d="M80.5612 48.4103H95.6811C96.3336 48.4103 96.8623 47.8816 96.8623 47.2291C96.8623 46.5766 96.3336 46.0479 95.6811 46.0479H80.5612C79.9087 46.0479 79.38 46.5766 79.38 47.2291C79.38 47.8816 79.9087 48.4103 80.5612 48.4103Z" fill="black"/>
<path d="M42.6938 14.3907C43.3462 14.3907 43.875 13.8618 43.875 13.2094C43.875 12.5571 43.3462 12.0282 42.6938 12.0282C42.0414 12.0282 41.5126 12.5571 41.5126 13.2094C41.5126 13.8618 42.0414 14.3907 42.6938 14.3907Z" fill="black"/>
</svg>
