<svg width="116" height="94" viewBox="0 0 116 94" fill="none" xmlns="http://www.w3.org/2000/svg">
<path d="M112.728 75.9191H68.9268C68.7932 79.4979 66.2694 81.7 63.0122 81.7H52.0284C48.652 81.7 46.0632 78.544 46.1084 75.9191H2.89047C1.30071 75.9191 0 77.2198 0 78.8096V81.7C0 88.0591 5.20284 93.2619 11.5619 93.2619H104.057C110.416 93.2619 115.619 88.0591 115.619 81.7V78.8096C115.619 77.2198 114.318 75.9191 112.728 75.9191ZM104.057 9.43837C104.057 4.6691 100.155 0.766968 95.3855 0.766968H20.2333C15.464 0.766968 11.5619 4.6691 11.5619 9.43837V70.1382H104.057V9.43837ZM92.495 58.5763H23.1238V12.3288H92.495V58.5763Z" fill="black"/>
</svg>
