<svg width="116" height="116" viewBox="0 0 116 116" fill="none" xmlns="http://www.w3.org/2000/svg">
<path d="M57.7121 7.76956C57.7121 5.85628 58.4722 4.02137 59.8251 2.66848C61.1779 1.31559 63.0129 0.555542 64.9261 0.555542L108.21 0.555542C110.123 0.555542 111.958 1.31559 113.311 2.66848C114.664 4.02137 115.424 5.85628 115.424 7.76956V108.766C115.424 110.679 114.664 112.514 113.311 113.867C111.958 115.22 110.123 115.98 108.21 115.98H64.9261C63.0129 115.98 61.1779 115.22 59.8251 113.867C58.4722 112.514 57.7121 110.679 57.7121 108.766V7.76956ZM64.9261 105.159C64.9261 106.115 65.3061 107.033 65.9826 107.709C66.659 108.386 67.5765 108.766 68.5331 108.766C69.4898 108.766 70.4072 108.386 71.0837 107.709C71.7601 107.033 72.1401 106.115 72.1401 105.159C72.1401 104.202 71.7601 103.285 71.0837 102.608C70.4072 101.932 69.4898 101.552 68.5331 101.552C67.5765 101.552 66.659 101.932 65.9826 102.608C65.3061 103.285 64.9261 104.202 64.9261 105.159ZM79.3542 105.159C79.3542 106.115 79.7342 107.033 80.4106 107.709C81.0871 108.386 82.0045 108.766 82.9612 108.766C83.9178 108.766 84.8353 108.386 85.5117 107.709C86.1881 107.033 86.5682 106.115 86.5682 105.159C86.5682 104.202 86.1881 103.285 85.5117 102.608C84.8353 101.932 83.9178 101.552 82.9612 101.552C82.0045 101.552 81.0871 101.932 80.4106 102.608C79.7342 103.285 79.3542 104.202 79.3542 105.159ZM68.5331 7.76956C67.5765 7.76956 66.659 8.14958 65.9826 8.82602C65.3061 9.50247 64.9261 10.4199 64.9261 11.3766C64.9261 12.3332 65.3061 13.2507 65.9826 13.9271C66.659 14.6035 67.5765 14.9836 68.5331 14.9836H104.603C105.56 14.9836 106.477 14.6035 107.154 13.9271C107.83 13.2507 108.21 12.3332 108.21 11.3766C108.21 10.4199 107.83 9.50247 107.154 8.82602C106.477 8.14958 105.56 7.76956 104.603 7.76956H68.5331ZM64.9261 25.8046C64.9261 26.7612 65.3061 27.6787 65.9826 28.3551C66.659 29.0316 67.5765 29.4116 68.5331 29.4116H104.603C105.56 29.4116 106.477 29.0316 107.154 28.3551C107.83 27.6787 108.21 26.7612 108.21 25.8046C108.21 24.848 107.83 23.9305 107.154 23.2541C106.477 22.5776 105.56 22.1976 104.603 22.1976H68.5331C67.5765 22.1976 66.659 22.5776 65.9826 23.2541C65.3061 23.9305 64.9261 24.848 64.9261 25.8046ZM10.821 14.9836C7.95111 14.9836 5.19874 16.1236 3.1694 18.153C1.14007 20.1823 0 22.9347 0 25.8046L0 76.3027C0 79.1726 1.14007 81.925 3.1694 83.9543C5.19874 85.9836 7.95111 87.1237 10.821 87.1237H43.2841V101.552H39.6771C38.7204 101.552 37.803 101.932 37.1265 102.608C36.4501 103.285 36.0701 104.202 36.0701 105.159C36.0701 106.115 36.4501 107.033 37.1265 107.709C37.803 108.386 38.7204 108.766 39.6771 108.766H50.4981V79.9097H10.821C9.86438 79.9097 8.94693 79.5297 8.27048 78.8532C7.59404 78.1768 7.21401 77.2593 7.21401 76.3027V25.8046C7.21401 24.848 7.59404 23.9305 8.27048 23.2541C8.94693 22.5776 9.86438 22.1976 10.821 22.1976H50.4981V14.9836H10.821Z" fill="black"/>
</svg>
