<svg width="18" height="18" viewBox="0 0 18 18" fill="none" xmlns="http://www.w3.org/2000/svg">
<path d="M12.6554 10.4035C12.4379 10.2934 11.3784 9.77639 11.1804 9.70261C10.9824 9.63209 10.8386 9.5952 10.6943 9.81274C10.5533 10.0249 10.1377 10.5104 10.0108 10.652C9.88381 10.7936 9.75903 10.8044 9.54475 10.7084C9.3272 10.5983 8.63226 10.3721 7.80712 9.63209C7.16263 9.05866 6.73351 8.35233 6.60602 8.13479C6.47908 7.91996 6.59192 7.79844 6.69933 7.69102C6.79807 7.59229 6.91688 7.44256 7.027 7.31236C7.13171 7.18216 7.16534 7.09482 7.24183 6.95377C7.31236 6.80132 7.27601 6.68252 7.2223 6.5751C7.1686 6.46769 6.73622 5.40276 6.55557 4.97852C6.38306 4.55754 6.2024 4.61125 6.06949 4.61125C5.94526 4.59986 5.80095 4.59986 5.65719 4.59986C5.51343 4.59986 5.27853 4.65357 5.08051 4.85972C4.8825 5.07726 4.32318 5.59697 4.32318 6.64834C4.32318 7.70242 5.09733 8.72231 5.20475 8.87476C5.31487 9.01581 6.72754 11.1858 8.89483 12.1184C9.41183 12.3359 9.81328 12.4661 10.1268 12.5735C10.6439 12.7374 11.1158 12.7146 11.4885 12.6609C11.9008 12.5931 12.7656 12.1379 12.9468 11.6296C13.1307 11.118 13.1307 10.6943 13.077 10.5983C13.0233 10.4995 12.8822 10.4458 12.6647 10.3498L12.6554 10.4035ZM8.72503 15.7325H8.71364C7.43062 15.7325 6.16226 15.3848 5.05447 14.7348L4.79462 14.5797L2.08212 15.286L2.81124 12.6468L2.63601 12.3755C1.92099 11.2368 1.53962 9.92287 1.53962 8.57259C1.53962 4.63404 4.76369 1.42135 8.73045 1.42135C10.652 1.42135 12.4547 2.17 13.811 3.52625C15.1672 4.87111 15.9159 6.67384 15.9159 8.58398C15.9104 12.5198 12.6891 15.7325 8.72774 15.7325H8.72503ZM14.8423 2.49496C13.192 0.901093 11.022 0 8.71364 0C3.95266 0 0.07595 3.85989 0.0732375 8.60351C0.0732375 10.1182 0.46872 11.5959 1.22605 12.9039L0 17.36L4.58304 16.1649C5.84598 16.8457 7.26733 17.2103 8.71418 17.213H8.71689C13.4806 17.213 17.3573 13.3531 17.36 8.60622C17.36 6.30928 16.4643 4.14741 14.8314 2.52263L14.8423 2.49496Z" fill="white"/>
</svg>
