<svg width="18" height="18" viewBox="0 0 18 18" fill="none" xmlns="http://www.w3.org/2000/svg">
<path d="M5.19122 0.218262H12.573C15.3852 0.218262 17.67 2.47475 17.67 5.25196V12.5421C17.67 13.8772 17.133 15.1575 16.1771 16.1015C15.2213 17.0455 13.9248 17.5758 12.573 17.5758H5.19122C2.37909 17.5758 0.0942459 15.3194 0.0942459 12.5421V5.25196C0.0942459 3.91694 0.631247 2.6366 1.58711 1.6926C2.54298 0.748596 3.83942 0.218262 5.19122 0.218262ZM5.01546 1.95402C4.17641 1.95402 3.37173 2.28319 2.77843 2.86912C2.18513 3.45506 1.85182 4.24975 1.85182 5.07838V12.7157C1.85182 14.4428 3.26667 15.8401 5.01546 15.8401H12.7488C13.5878 15.8401 14.3925 15.5109 14.9858 14.925C15.5791 14.339 15.9124 13.5443 15.9124 12.7157V5.07838C15.9124 3.3513 14.4976 1.95402 12.7488 1.95402H5.01546ZM13.4958 3.25584C13.7871 3.25584 14.0665 3.37013 14.2725 3.57358C14.4785 3.77703 14.5942 4.05297 14.5942 4.34069C14.5942 4.62841 14.4785 4.90434 14.2725 5.10779C14.0665 5.31124 13.7871 5.42553 13.4958 5.42553C13.2044 5.42553 12.925 5.31124 12.719 5.10779C12.513 4.90434 12.3973 4.62841 12.3973 4.34069C12.3973 4.05297 12.513 3.77703 12.719 3.57358C12.925 3.37013 13.2044 3.25584 13.4958 3.25584ZM8.88212 4.55766C10.0475 4.55766 11.1651 5.01484 11.9891 5.82863C12.8131 6.64243 13.2761 7.74617 13.2761 8.89705C13.2761 10.0479 12.8131 11.1517 11.9891 11.9655C11.1651 12.7793 10.0475 13.2364 8.88212 13.2364C7.71678 13.2364 6.59916 12.7793 5.77514 11.9655C4.95112 11.1517 4.48819 10.0479 4.48819 8.89705C4.48819 7.74617 4.95112 6.64243 5.77514 5.82863C6.59916 5.01484 7.71678 4.55766 8.88212 4.55766ZM8.88212 6.29341C8.18292 6.29341 7.51235 6.56772 7.01793 7.056C6.52352 7.54428 6.24576 8.20652 6.24576 8.89705C6.24576 9.58758 6.52352 10.2498 7.01793 10.7381C7.51235 11.2264 8.18292 11.5007 8.88212 11.5007C9.58133 11.5007 10.2519 11.2264 10.7463 10.7381C11.2407 10.2498 11.5185 9.58758 11.5185 8.89705C11.5185 8.20652 11.2407 7.54428 10.7463 7.056C10.2519 6.56772 9.58133 6.29341 8.88212 6.29341Z" fill="white"/>
</svg>
