<svg width="29" height="29" viewBox="0 0 29 29" fill="none" xmlns="http://www.w3.org/2000/svg">
<path d="M20.744 26.2283C15.8766 26.222 11.2105 24.2857 7.76872 20.844C4.32699 17.4022 2.39065 12.736 2.38434 7.86871C2.38434 6.41425 2.96212 5.01936 3.99058 3.9909C5.01904 2.96244 6.41393 2.38466 7.86839 2.38466C8.17638 2.38231 8.48385 2.41026 8.78637 2.46811C9.07882 2.51139 9.36633 2.58326 9.64474 2.6827C9.84056 2.75141 10.015 2.87004 10.151 3.02685C10.2869 3.18367 10.3795 3.37325 10.4197 3.57684L12.053 10.7299C12.097 10.9241 12.0917 11.1262 12.0375 11.3178C11.9834 11.5094 11.8821 11.6844 11.743 11.8268C11.588 11.9937 11.5761 12.0056 10.1097 12.7686C11.284 15.3447 13.3443 17.4135 15.9156 18.5984C16.6906 17.1201 16.7025 17.1081 16.8694 16.9532C17.0118 16.814 17.1868 16.7127 17.3783 16.6586C17.5699 16.6045 17.772 16.5992 17.9662 16.6432L25.1193 18.2765C25.3164 18.3222 25.4986 18.4173 25.6487 18.5529C25.7989 18.6885 25.9121 18.86 25.9777 19.0514C26.0783 19.3344 26.1541 19.6256 26.2042 19.9217C26.2522 20.2213 26.2761 20.5243 26.2757 20.8278C26.2537 22.276 25.6597 23.6567 24.6233 24.6686C23.5869 25.6804 22.1923 26.2411 20.744 26.2283Z" fill="#231F20"/>
</svg>
