<svg width="91" height="95" viewBox="0 0 91 95" fill="none" xmlns="http://www.w3.org/2000/svg">
<path d="M3 16.35V43.05C3 43.05 3 56.4 34.15 56.4C36.7866 56.4 39.2003 56.3043 41.4093 56.1294" stroke="black" stroke-width="5.23322" stroke-linecap="round" stroke-linejoin="round"/>
<path d="M65.2998 16.35V43.05" stroke="black" stroke-width="5.23322" stroke-linecap="round" stroke-linejoin="round"/>
<path d="M34.15 3C65.3 3 65.3 16.35 65.3 16.35C65.3 16.35 65.3 29.7 34.15 29.7C3 29.7 3 16.35 3 16.35C3 16.35 3 3 34.15 3Z" stroke="black" stroke-width="5.23322" stroke-linecap="round" stroke-linejoin="round"/>
<path d="M34.15 83.1C3 83.1 3 69.75 3 69.75V43.05" stroke="black" stroke-width="5.23322" stroke-linecap="round" stroke-linejoin="round"/>
<path d="M86.0654 68.2668C83.3118 61.2817 77.0235 56.4 69.7059 56.4C61.8814 56.4 55.2327 61.9825 52.8257 69.75" stroke="black" stroke-width="5.23322" stroke-linecap="round" stroke-linejoin="round"/>
<path d="M78.6284 68.2667H86.0657C86.8858 68.2667 87.5507 67.6019 87.5507 66.7818V58.3779" stroke="black" stroke-width="5.23322" stroke-linecap="round" stroke-linejoin="round"/>
<path d="M53.4341 80.1332C56.1877 87.1184 62.476 92 69.7936 92C77.6181 92 84.2668 86.4175 86.6738 78.65" stroke="black" stroke-width="5.23322" stroke-linecap="round" stroke-linejoin="round"/>
<path d="M60.872 80.1332H53.4347C52.6145 80.1332 51.9497 80.7981 51.9497 81.6182V90.022" stroke="black" stroke-width="5.23322" stroke-linecap="round" stroke-linejoin="round"/>
</svg>
