<svg width="89" height="89" viewBox="0 0 89 89" fill="none" xmlns="http://www.w3.org/2000/svg">
<path d="M20.27 64.7809L42.5127 42.5382L46.446 46.4715L24.2033 68.7142L20.27 64.7809Z" fill="black"/>
<path d="M47.2808 83.4375C46.9286 83.4383 46.5793 83.3723 46.2517 83.2428C45.7961 83.0612 45.3966 82.7622 45.0938 82.3764C44.7909 81.9905 44.5955 81.5314 44.5274 81.0456L41.7461 61.5769L47.3086 60.7981L49.3946 75.4553L58.4058 68.1962V47.2812C58.4037 46.9152 58.4738 46.5524 58.6123 46.2135C58.7507 45.8746 58.9546 45.5664 59.2124 45.3066L70.5321 33.9869C72.8645 31.6702 74.7144 28.9141 75.9748 25.8778C77.2351 22.8416 77.8808 19.5855 77.8746 16.2981V11.125H72.7014C69.414 11.1187 66.158 11.7645 63.1217 13.0248C60.0855 14.2851 57.3293 16.135 55.0127 18.4675L43.693 29.7872C43.4331 30.0449 43.1249 30.2489 42.786 30.3873C42.4472 30.5257 42.0843 30.5959 41.7183 30.5937H20.8033L13.5442 39.6606L28.2014 41.7466L27.4227 47.3091L7.95394 44.5278C7.46817 44.4597 7.00907 44.2643 6.62319 43.9614C6.23731 43.6586 5.93839 43.2591 5.75675 42.8034C5.57286 42.3446 5.51457 41.845 5.5879 41.3562C5.66123 40.8673 5.86352 40.4069 6.17394 40.0222L17.2989 26.1159C17.5551 25.783 17.8834 25.5125 18.2592 25.3246C18.6349 25.1368 19.0483 25.0365 19.4683 25.0312H40.578L51.0633 14.5181C53.8979 11.6676 57.2701 9.40822 60.9845 7.8709C64.6989 6.33358 68.6815 5.54895 72.7014 5.56249H77.8746C79.3498 5.56249 80.7647 6.14854 81.8078 7.19171C82.851 8.23488 83.4371 9.64972 83.4371 11.125V16.2981C83.4506 20.318 82.666 24.3007 81.1286 28.0151C79.5913 31.7294 77.3319 35.1017 74.4814 37.9362L63.9683 48.4216V69.5312C63.9664 69.949 63.8704 70.361 63.6874 70.7365C63.5044 71.1121 63.2392 71.4416 62.9114 71.7006L49.0052 82.8256C48.5159 83.2182 47.9082 83.4338 47.2808 83.4375Z" fill="black"/>
</svg>
