<svg width="34" height="34" viewBox="0 0 34 34" fill="none" xmlns="http://www.w3.org/2000/svg">
<path d="M24.3486 20.016C23.9301 19.8041 21.8916 18.8094 21.5106 18.6675C21.1297 18.5318 20.8531 18.4608 20.5754 18.8794C20.3041 19.2875 19.5046 20.2216 19.2603 20.494C19.0161 20.7665 18.776 20.7873 18.3637 20.6026C17.9452 20.3907 16.6082 19.9555 15.0206 18.5318C13.7806 17.4285 12.955 16.0696 12.7097 15.651C12.4655 15.2377 12.6826 15.0039 12.8893 14.7972C13.0792 14.6073 13.3078 14.3192 13.5197 14.0687C13.7211 13.8182 13.7859 13.6502 13.933 13.3788C14.0687 13.0855 13.9988 12.8569 13.8954 12.6503C13.7921 12.4436 12.9602 10.3947 12.6127 9.57849C12.2808 8.76854 11.9332 8.87188 11.6775 8.87188C11.4385 8.84996 11.1608 8.84996 10.8842 8.84996C10.6076 8.84996 10.1557 8.95329 9.77472 9.34991C9.39375 9.76846 8.31764 10.7684 8.31764 12.7912C8.31764 14.8192 9.80708 16.7814 10.0137 17.0747C10.2256 17.3461 12.9435 21.5211 17.1133 23.3153C18.108 23.7338 18.8804 23.9843 19.4837 24.191C20.4784 24.5062 21.3864 24.4624 22.1035 24.359C22.8967 24.2286 24.5605 23.3529 24.9091 22.3749C25.2629 21.3906 25.2629 20.5754 25.1596 20.3907C25.0563 20.2007 24.7849 20.0974 24.3663 19.9127L24.3486 20.016ZM16.7866 30.2688H16.7647C14.2962 30.2688 11.856 29.5997 9.72462 28.3493L9.22466 28.0508L4.00591 29.4097L5.40871 24.3319L5.07158 23.81C3.69592 21.6192 2.96216 19.0912 2.96216 16.4933C2.96216 8.91571 9.16517 2.73463 16.7971 2.73463C20.494 2.73463 23.9624 4.175 26.5718 6.78438C29.1812 9.37183 30.6215 12.8402 30.6215 16.5153C30.6111 24.0877 24.4133 30.2688 16.7918 30.2688H16.7866ZM28.556 4.80021C25.3809 1.73367 21.2059 0 16.7647 0C7.60476 0 0.146125 7.42628 0.140906 16.5528C0.140906 19.467 0.9018 22.3102 2.35888 24.8266L0 33.4L8.8176 31.1006C11.2475 32.4105 13.9821 33.1119 16.7658 33.1171H16.771C25.9361 33.1171 33.3948 25.6909 33.4 16.5581C33.4 12.1388 31.6768 7.97947 28.5351 4.85344L28.556 4.80021Z" fill="black"/>
</svg>
