<svg width="12" height="18" viewBox="0 0 12 18" fill="none" xmlns="http://www.w3.org/2000/svg">
<path d="M5.92671 0.218262C2.89355 0.218262 0.434288 2.64646 0.434288 5.6425C0.434288 6.48157 0.627381 7.2772 0.97227 7.98595C0.991562 8.02622 5.92671 17.5758 5.92671 17.5758L10.8216 8.1046C11.2035 7.3662 11.4191 6.52923 11.4191 5.6425C11.4191 2.64646 8.96042 0.218262 5.92671 0.218262ZM5.92671 8.89705C4.1068 8.89705 2.63126 7.43929 2.63126 5.6425C2.63126 3.84572 4.1068 2.38796 5.92671 2.38796C7.74608 2.38796 9.22217 3.84572 9.22217 5.6425C9.22217 7.43929 7.74608 8.89705 5.92671 8.89705Z" fill="white"/>
</svg>
