<svg width="19" height="18" viewBox="0 0 19 18" fill="none" xmlns="http://www.w3.org/2000/svg">
<path d="M16.3771 0.218262H2.70704C1.63297 0.218262 0.754181 1.08614 0.754181 2.14688V15.6472C0.754181 16.7089 1.63297 17.5758 2.70704 17.5758H9.54206V10.8257H7.5892V8.439H9.54206V6.46217C9.54206 4.3754 10.7255 2.90965 13.2193 2.90965L14.9798 2.91158V5.42361H13.811C12.8404 5.42361 12.4714 6.14298 12.4714 6.81028V8.43997H14.9788L14.4242 10.8257H12.4714V17.5758H16.3771C17.4512 17.5758 18.3299 16.7089 18.3299 15.6472V2.14688C18.3299 1.08614 17.4512 0.218262 16.3771 0.218262Z" fill="white"/>
</svg>
