<svg width="34" height="34" viewBox="0 0 34 34" fill="none" xmlns="http://www.w3.org/2000/svg">
<path d="M26.4433 5.56689H6.95876C5.85142 5.56689 4.78942 6.00679 4.00641 6.7898C3.2234 7.57281 2.78351 8.6348 2.78351 9.74215V23.6597C2.78351 24.767 3.2234 25.829 4.00641 26.612C4.78942 27.395 5.85142 27.8349 6.95876 27.8349H26.4433C27.5506 27.8349 28.6126 27.395 29.3956 26.612C30.1786 25.829 30.6185 24.767 30.6185 23.6597V9.74215C30.6185 8.6348 30.1786 7.57281 29.3956 6.7898C28.6126 6.00679 27.5506 5.56689 26.4433 5.56689ZM26.4433 8.3504L17.3969 14.5715C17.1853 14.6937 16.9453 14.758 16.701 14.758C16.4567 14.758 16.2167 14.6937 16.0051 14.5715L6.95876 8.3504H26.4433Z" fill="#231F20"/>
</svg>
